<?xml version="1.0" encoding="UTF-8" standalone="no"?>
<!DOCTYPE svg PUBLIC "-//W3C//DTD SVG 1.1//EN" "http://www.w3.org/Graphics/SVG/1.1/DTD/svg11.dtd">
<svg width="100%" height="100%" viewBox="0 0 24 24" version="1.1" xmlns="http://www.w3.org/2000/svg" xmlns:xlink="http://www.w3.org/1999/xlink" xml:space="preserve" xmlns:serif="http://www.serif.com/" style="fill-rule:evenodd;clip-rule:evenodd;stroke-linejoin:round;stroke-miterlimit:2;">
    <path d="M12,5C11.448,5 11,5.448 11,6C11,6.552 11.448,7 12,7C12.552,7 13,6.552 13,6C13,5.448 12.552,5 12,5ZM9,6C9,4.343 10.343,3 12,3C13.657,3 15,4.343 15,6C15,7.001 14.509,7.888 13.755,8.433C13.831,8.574 13.893,8.729 13.938,8.898L15.245,13.82L18.349,11.406C18.126,10.987 18,10.508 18,10C18,8.343 19.343,7 21,7C22.657,7 24,8.343 24,10C24,11.657 22.657,13 21,13L21,18.762C21,19.249 20.871,19.728 20.627,20.149C20.383,20.571 20.033,20.921 19.611,21.165C19.403,21.285 19.159,21.326 18.923,21.281C13.714,20.284 10.286,20.284 5.077,21.281C4.841,21.326 4.597,21.285 4.389,21.165C3.967,20.921 3.617,20.571 3.373,20.149C3.129,19.728 3.001,19.249 3,18.762L3,13C1.343,13 0,11.657 0,10C0,8.343 1.343,7 3,7C4.657,7 6,8.343 6,10C6,10.507 5.874,10.985 5.652,11.403L8.776,13.822L10.07,8.903C10.115,8.733 10.176,8.578 10.251,8.438C9.494,7.893 9,7.004 9,6ZM3,9C2.448,9 2,9.448 2,10C2,10.552 2.448,11 3,11C3.552,11 4,10.552 4,10C4,9.448 3.552,9 3,9ZM21,9C20.448,9 20,9.448 20,10C20,10.552 20.448,11 21,11C21.552,11 22,10.552 22,10C22,9.448 21.552,9 21,9ZM13.7,15.794L12.005,9.412L10.325,15.792C10.24,16.116 9.998,16.376 9.68,16.484C9.362,16.592 9.011,16.533 8.746,16.328L5,13.428L5,18.76C5,18.897 5.036,19.031 5.104,19.148C5.121,19.177 5.139,19.205 5.159,19.231C10.217,18.301 13.784,18.301 18.841,19.231C18.861,19.205 18.879,19.177 18.896,19.148C18.964,19.03 19,18.896 19,18.76L19,13.434L15.281,16.326C15.016,16.533 14.665,16.592 14.347,16.485C14.029,16.378 13.786,16.118 13.7,15.794Z" style="fill:rgb(168,177,255);fill-opacity:0.86;"/>
</svg>
