<?xml version="1.0" encoding="UTF-8" standalone="no"?>
<!DOCTYPE svg PUBLIC "-//W3C//DTD SVG 1.1//EN" "http://www.w3.org/Graphics/SVG/1.1/DTD/svg11.dtd">
<svg width="100%" height="100%" viewBox="0 0 128 128" version="1.1" xmlns="http://www.w3.org/2000/svg" xmlns:xlink="http://www.w3.org/1999/xlink" xml:space="preserve" xmlns:serif="http://www.serif.com/" style="fill-rule:evenodd;clip-rule:evenodd;stroke-linecap:round;stroke-linejoin:round;stroke-miterlimit:1.5;">
    <g transform="matrix(1,0,0,1,-3.5,1)">
        <path d="M88,40.25C88,34.593 83.407,30 77.75,30L57.25,30C51.593,30 47,34.593 47,40.25L47,85.75C47,91.407 51.593,96 57.25,96L77.75,96C83.407,96 88,91.407 88,85.75L88,40.25Z" style="fill:rgb(235,235,235);stroke:rgb(131,131,131);stroke-width:1px;"/>
    </g>
    <path d="M64,31L50,31C46.413,31 43.5,33.913 43.5,37.5L43.5,50.5C43.5,54.087 46.413,57 50,57L64,57L64,31Z" style="fill:rgb(235,235,235);stroke:rgb(131,131,131);stroke-width:1px;"/>
    <path d="M64,31L64,57L78,57C81.587,57 84.5,54.087 84.5,50.5L84.5,37.5C84.5,33.913 81.587,31 78,31L64,31Z" style="fill:rgb(235,235,235);stroke:rgb(131,131,131);stroke-width:1px;"/>
    <g transform="matrix(0.121951,0,0,0.30303,55.7683,24.9091)">
        <path d="M88,34.125C88,31.848 83.407,30 77.75,30L57.25,30C51.593,30 47,31.848 47,34.125L47,91.875C47,94.152 51.593,96 57.25,96L77.75,96C83.407,96 88,94.152 88,91.875L88,34.125Z" style="fill:rgb(235,235,235);stroke:rgb(131,131,131);stroke-width:4.33px;"/>
    </g>
    <g transform="matrix(0.121951,0,0,0.30303,55.7683,24.9091)">
        <path d="M88,34.125C88,31.848 83.407,30 77.75,30L57.25,30C51.593,30 47,31.848 47,34.125L47,91.875C47,94.152 51.593,96 57.25,96L77.75,96C83.407,96 88,94.152 88,91.875L88,34.125Z" style="fill:rgb(255,175,175);stroke:rgb(131,131,131);stroke-width:4.33px;"/>
    </g>
    <g transform="matrix(3.61827e-17,0.590909,-1,6.12323e-17,142.5,30.7727)">
        <path d="M61.308,80.425L61.308,84L52,78.5L61.308,73L61.308,76.575L86.692,76.575L86.692,73L96,78.5L86.692,84L86.692,80.425L61.308,80.425Z" style="fill:rgb(255,175,175);"/>
    </g>
    <g transform="matrix(0.590909,0,0,1,20.2727,-4)">
        <path d="M61.308,80.425L61.308,84L52,78.5L61.308,73L61.308,76.575L86.692,76.575L86.692,73L96,78.5L86.692,84L86.692,80.425L61.308,80.425Z" style="fill:rgb(255,175,175);"/>
    </g>
</svg>
